<svg width="409" height="464" viewBox="0 0 409 464" fill="none" xmlns="http://www.w3.org/2000/svg">
<path d="M204.25 463.851L37.2215 417.483L0 0H409L371.739 417.417L204.25 463.851Z" fill="#264DE4"/>
<path d="M339.84 390.837L371.682 34.1353H204.5V428.359L339.84 390.837Z" fill="#2965F1"/>
<path d="M85.3295 188.974L89.9186 240.176H204.5V188.974H85.3295Z" fill="#EBEBEB"/>
<path d="M76.1084 85.3385L80.7629 136.542H204.5V85.3385H76.1084Z" fill="#EBEBEB"/>
<path d="M204.5 321.952L204.276 322.012L147.251 306.614L143.606 265.778H92.2064L99.3798 346.173L204.264 375.29L204.5 375.224V321.952Z" fill="#EBEBEB"/>
<path d="M323.342 188.974L332.586 85.3385H204.323V136.542H276.473L271.814 188.974H204.323V240.176H267.373L261.43 306.581L204.323 321.995V375.265L309.291 346.173L310.061 337.523L322.093 202.723L323.342 188.974Z" fill="white"/>
</svg>
